<svg xmlns="http://www.w3.org/2000/svg" viewBox="0 0 1200 560" role="img" aria-labelledby="title desc"><title id="title">Không gian học tập Web</title><desc id="desc">Minh họa màn hình máy tính, cửa sổ trình duyệt và các thẻ nội dung trên nền xanh.</desc><rect width="1200" height="560" rx="36" fill="#eaf4ff"/><circle cx="1000" cy="95" r="130" fill="#d2e9ff"/><rect x="112" y="95" width="650" height="360" rx="22" fill="#fff" stroke="#9fc8ef" stroke-width="8"/><path d="M112 145h650" stroke="#9fc8ef" stroke-width="8"/><circle cx="150" cy="120" r="10" fill="#f48b80"/><circle cx="182" cy="120" r="10" fill="#f5c85e"/><circle cx="214" cy="120" r="10" fill="#67bf8b"/><rect x="154" y="190" width="300" height="26" rx="13" fill="#0878f9"/><rect x="154" y="238" width="500" height="14" rx="7" fill="#b5cce5"/><rect x="154" y="267" width="420" height="14" rx="7" fill="#d4e2f1"/><rect x="154" y="323" width="205" height="82" rx="14" fill="#dcefff"/><rect x="380" y="323" width="205" height="82" rx="14" fill="#e8f7ee"/><path d="M828 382c0-112 74-194 171-194s171 82 171 194" fill="none" stroke="#0878f9" stroke-width="20" stroke-linecap="round"/><rect x="817" y="360" width="64" height="110" rx="28" fill="#174d85"/><rect x="1107" y="360" width="64" height="110" rx="28" fill="#174d85"/><circle cx="999" cy="260" r="82" fill="#fff" stroke="#9fc8ef" stroke-width="8"/><path d="M965 263h68m-34-34v68" stroke="#0878f9" stroke-width="12" stroke-linecap="round"/></svg>
