<svg xmlns="http://www.w3.org/2000/svg" viewBox="0 0 1100 520" role="img" aria-labelledby="title"><title id="title">Browser và Web Server trao đổi HTTP Request và Response</title><defs><marker id="arrow" markerWidth="10" markerHeight="10" refX="8" refY="5" orient="auto"><path d="M0 0L10 5L0 10Z" fill="#287bc1"/></marker><marker id="orange" markerWidth="10" markerHeight="10" refX="8" refY="5" orient="auto"><path d="M0 0L10 5L0 10Z" fill="#dc8b28"/></marker><marker id="green" markerWidth="10" markerHeight="10" refX="8" refY="5" orient="auto"><path d="M0 0L10 5L0 10Z" fill="#27834a"/></marker><marker id="red" markerWidth="10" markerHeight="10" refX="8" refY="5" orient="auto"><path d="M0 0L10 5L0 10Z" fill="#bd4545"/></marker></defs><rect width="1100" height="520" rx="20" fill="#f7fbff"/><rect x="135" y="43" width="70" height="48" rx="5" fill="#eaf5ff" stroke="#3988cf" stroke-width="3"/><line x1="135" y1="56" x2="205" y2="56" stroke="#3988cf" stroke-width="3"/><circle cx="145" cy="50" r="2" fill="#287bc1"/><circle cx="153" cy="50" r="2" fill="#287bc1"/><path d="M165 91v12h-12m20 0h-20" fill="none" stroke="#3988cf" stroke-width="3"/><text x="170" y="132" text-anchor="middle" font-family="Arial,sans-serif" font-size="21" font-weight="700" fill="#123d70">Browser · Client</text><rect x="895" y="44" width="70" height="29" rx="4" fill="#eaf5ff" stroke="#3988cf" stroke-width="3"/><circle cx="907" cy="58" r="3" fill="#27834a"/><line x1="918" y1="58" x2="952" y2="58" stroke="#8bb9e8" stroke-width="3"/><rect x="895" y="78" width="70" height="29" rx="4" fill="#eaf5ff" stroke="#3988cf" stroke-width="3"/><circle cx="907" cy="92" r="3" fill="#27834a"/><line x1="918" y1="92" x2="952" y2="92" stroke="#8bb9e8" stroke-width="3"/><text x="930" y="132" text-anchor="middle" font-family="Arial,sans-serif" font-size="21" font-weight="700" fill="#123d70">Web Server</text><line x1="300" y1="195" x2="800" y2="195" stroke="#287bc1" stroke-width="4" marker-end="url(#arrow)"/><text x="550" y="177" text-anchor="middle" font-family="Arial,sans-serif" font-size="20" font-weight="700" fill="#174f91">HTTP Request</text><line x1="800" y1="390" x2="300" y2="390" stroke="#27834a" stroke-width="4" marker-end="url(#arrow)"/><text x="550" y="373" text-anchor="middle" font-family="Arial,sans-serif" font-size="20" font-weight="700" fill="#21683b">HTTP Response</text><rect x="340" y="220" width="420" height="128" rx="9" fill="#fff" stroke="#3988cf" stroke-width="2"/><rect x="340" y="220" width="420" height="38" rx="9" fill="#e4f2ff" stroke="#3988cf" stroke-width="1"/><text x="550" y="247" text-anchor="middle" font-family="Arial,sans-serif" font-size="20" font-weight="700" fill="#123d70">GET /courses HTTP/1.1</text><line x1="340" y1="258" x2="760" y2="258" stroke="#a9c8e6" stroke-width="1"/><text x="550" y="284" text-anchor="middle" font-family="Arial,sans-serif" font-size="17" font-weight="500" fill="#17365f">Headers · Host, Accept</text><line x1="340" y1="296" x2="760" y2="296" stroke="#a9c8e6" stroke-width="1"/><text x="550" y="324" text-anchor="middle" font-family="Arial,sans-serif" font-size="17" font-weight="500" fill="#536b91">Body (optional)</text><rect x="340" y="410" width="420" height="82" rx="9" fill="#fff" stroke="#70b889" stroke-width="2"/><rect x="340" y="410" width="420" height="36" rx="9" fill="#e6f6eb" stroke="#70b889" stroke-width="1"/><text x="550" y="435" text-anchor="middle" font-family="Arial,sans-serif" font-size="20" font-weight="700" fill="#205f36">HTTP/1.1 200 OK</text><line x1="340" y1="448" x2="760" y2="448" stroke="#b2d8bd" stroke-width="1"/><text x="550" y="473" text-anchor="middle" font-family="Arial,sans-serif" font-size="17" font-weight="500" fill="#35634a">Headers  ·  Body</text></svg>