<svg xmlns="http://www.w3.org/2000/svg" viewBox="0 0 1120 455" role="img" aria-labelledby="title"><title id="title">Cùng nội dung reflow khi viewport thu hẹp và breakpoint khôi phục không gian đọc</title><defs><marker id="arrow" markerWidth="10" markerHeight="10" refX="8" refY="5" orient="auto"><path d="M0 0L10 5L0 10Z" fill="#287bc1"/></marker><marker id="orange" markerWidth="10" markerHeight="10" refX="8" refY="5" orient="auto"><path d="M0 0L10 5L0 10Z" fill="#dc8b28"/></marker><marker id="green" markerWidth="10" markerHeight="10" refX="8" refY="5" orient="auto"><path d="M0 0L10 5L0 10Z" fill="#27834a"/></marker><marker id="red" markerWidth="10" markerHeight="10" refX="8" refY="5" orient="auto"><path d="M0 0L10 5L0 10Z" fill="#bd4545"/></marker></defs><rect width="1120" height="455" rx="20" fill="#f7fbff"/><text x="80" y="45" text-anchor="start" font-family="Arial,sans-serif" font-size="16" font-weight="600" fill="#536b91">viewport rộng hơn</text><text x="1040" y="45" text-anchor="end" font-family="Arial,sans-serif" font-size="16" font-weight="600" fill="#536b91">viewport thu hẹp</text><line x1="110" y1="68" x2="1010" y2="68" stroke="#536b91" stroke-width="3" marker-end="url(#arrow)"/><rect x="45" y="105" width="320" height="255" rx="14" fill="#fff" stroke="#8bb9e8" stroke-width="2"/><rect x="54" y="114" width="302" height="29" rx="6" fill="#eaf5ff" stroke="#c9e0f5" stroke-width="1"/><text x="65" y="135" text-anchor="start" font-family="Arial,sans-serif" font-size="13" font-weight="500" fill="#536b91">shop.example.edu</text><rect x="61" y="158" width="288" height="38" rx="6" fill="#f1f7fc" stroke="#bdd5ec" stroke-width="1"/><text x="73" y="183" text-anchor="start" font-family="Arial,sans-serif" font-size="14" font-weight="500" fill="#536b91">Search products</text><rect x="61" y="209" width="91.66666666666667" height="97" rx="8" fill="#edf6ff" stroke="#bdd5ec" stroke-width="1"/><text x="106.83333333333334" y="251" text-anchor="middle" font-family="Arial,sans-serif" font-size="14" font-weight="600" fill="#17365f">Product</text><text x="106.83333333333334" y="278" text-anchor="middle" font-family="Arial,sans-serif" font-size="13" font-weight="500" fill="#536b91">name · price</text><rect x="157.66666666666669" y="209" width="91.66666666666667" height="97" rx="8" fill="#edf6ff" stroke="#bdd5ec" stroke-width="1"/><text x="203.50000000000003" y="251" text-anchor="middle" font-family="Arial,sans-serif" font-size="14" font-weight="600" fill="#17365f">Product</text><text x="203.50000000000003" y="278" text-anchor="middle" font-family="Arial,sans-serif" font-size="13" font-weight="500" fill="#536b91">name · price</text><rect x="254.33333333333334" y="209" width="91.66666666666667" height="97" rx="8" fill="#edf6ff" stroke="#bdd5ec" stroke-width="1"/><text x="300.1666666666667" y="251" text-anchor="middle" font-family="Arial,sans-serif" font-size="14" font-weight="600" fill="#17365f">Product</text><text x="300.1666666666667" y="278" text-anchor="middle" font-family="Arial,sans-serif" font-size="13" font-weight="500" fill="#536b91">name · price</text><text x="205" y="395" text-anchor="middle" font-family="Arial,sans-serif" font-size="17" font-weight="700" fill="#174f91">1280 px · 3 cột</text><rect x="405" y="105" width="230" height="255" rx="14" fill="#fff" stroke="#8bb9e8" stroke-width="2"/><rect x="414" y="114" width="212" height="29" rx="6" fill="#eaf5ff" stroke="#c9e0f5" stroke-width="1"/><text x="425" y="135" text-anchor="start" font-family="Arial,sans-serif" font-size="13" font-weight="500" fill="#536b91">shop.example.edu</text><rect x="421" y="158" width="198" height="38" rx="6" fill="#f1f7fc" stroke="#bdd5ec" stroke-width="1"/><text x="433" y="183" text-anchor="start" font-family="Arial,sans-serif" font-size="14" font-weight="500" fill="#536b91">Search products</text><rect x="421" y="209" width="92.5" height="97" rx="8" fill="#edf6ff" stroke="#bdd5ec" stroke-width="1"/><text x="467.25" y="251" text-anchor="middle" font-family="Arial,sans-serif" font-size="14" font-weight="600" fill="#17365f">Product</text><text x="467.25" y="278" text-anchor="middle" font-family="Arial,sans-serif" font-size="13" font-weight="500" fill="#536b91">name · price</text><rect x="518.5" y="209" width="92.5" height="97" rx="8" fill="#edf6ff" stroke="#bdd5ec" stroke-width="1"/><text x="564.75" y="251" text-anchor="middle" font-family="Arial,sans-serif" font-size="14" font-weight="600" fill="#17365f">Product</text><text x="564.75" y="278" text-anchor="middle" font-family="Arial,sans-serif" font-size="13" font-weight="500" fill="#536b91">name · price</text><text x="520" y="395" text-anchor="middle" font-family="Arial,sans-serif" font-size="17" font-weight="700" fill="#174f91">820 px · 2 cột</text><rect x="675" y="105" width="190" height="255" rx="14" fill="#fff" stroke="#8bb9e8" stroke-width="2"/><rect x="684" y="114" width="172" height="29" rx="6" fill="#eaf5ff" stroke="#c9e0f5" stroke-width="1"/><text x="695" y="135" text-anchor="start" font-family="Arial,sans-serif" font-size="13" font-weight="500" fill="#536b91">shop.example.edu</text><rect x="691" y="158" width="158" height="38" rx="6" fill="#f1f7fc" stroke="#bdd5ec" stroke-width="1"/><text x="703" y="183" text-anchor="start" font-family="Arial,sans-serif" font-size="14" font-weight="500" fill="#536b91">Search products</text><rect x="691" y="209" width="72.5" height="97" rx="8" fill="#fff0e7" stroke="#de9c66" stroke-width="1"/><text x="727.25" y="251" text-anchor="middle" font-family="Arial,sans-serif" font-size="14" font-weight="600" fill="#9a5d17">Product</text><text x="727.25" y="278" text-anchor="middle" font-family="Arial,sans-serif" font-size="12" font-weight="500" fill="#536b91">wraps</text><rect x="768.5" y="209" width="72.5" height="97" rx="8" fill="#fff0e7" stroke="#de9c66" stroke-width="1"/><text x="804.75" y="251" text-anchor="middle" font-family="Arial,sans-serif" font-size="14" font-weight="600" fill="#9a5d17">Product</text><text x="804.75" y="278" text-anchor="middle" font-family="Arial,sans-serif" font-size="12" font-weight="500" fill="#536b91">wraps</text><text x="770" y="395" text-anchor="middle" font-family="Arial,sans-serif" font-size="17" font-weight="700" fill="#9a5d17">700 px · chật</text><rect x="905" y="105" width="170" height="255" rx="14" fill="#fff" stroke="#8bb9e8" stroke-width="2"/><rect x="914" y="114" width="152" height="29" rx="6" fill="#eaf5ff" stroke="#c9e0f5" stroke-width="1"/><text x="925" y="135" text-anchor="start" font-family="Arial,sans-serif" font-size="13" font-weight="500" fill="#536b91">shop.example.edu</text><rect x="921" y="158" width="138" height="38" rx="6" fill="#f1f7fc" stroke="#bdd5ec" stroke-width="1"/><text x="933" y="183" text-anchor="start" font-family="Arial,sans-serif" font-size="14" font-weight="500" fill="#536b91">Search products</text><rect x="921" y="209" width="138" height="97" rx="8" fill="#edf6ff" stroke="#bdd5ec" stroke-width="1"/><text x="990" y="251" text-anchor="middle" font-family="Arial,sans-serif" font-size="15" font-weight="600" fill="#17365f">Product</text><text x="990" y="278" text-anchor="middle" font-family="Arial,sans-serif" font-size="14" font-weight="500" fill="#536b91">name · price</text><text x="990" y="395" text-anchor="middle" font-family="Arial,sans-serif" font-size="17" font-weight="700" fill="#174f91">520 px · 1 cột</text><line x1="865" y1="430" x2="925" y2="430" stroke="#dc8b28" stroke-width="4" marker-end="url(#arrow)"/><text x="895" y="449" text-anchor="middle" font-family="Arial,sans-serif" font-size="13" font-weight="700" fill="#9a5d17">breakpoint</text></svg>