<svg xmlns="http://www.w3.org/2000/svg" viewBox="0 0 1080 390" role="img" aria-labelledby="title"><title id="title">Bootstrap Grid hiển thị 12 tracks và span thay đổi theo breakpoint</title><defs><marker id="arrow" markerWidth="10" markerHeight="10" refX="8" refY="5" orient="auto"><path d="M0 0L10 5L0 10Z" fill="#287bc1"/></marker><marker id="orange" markerWidth="10" markerHeight="10" refX="8" refY="5" orient="auto"><path d="M0 0L10 5L0 10Z" fill="#dc8b28"/></marker><marker id="green" markerWidth="10" markerHeight="10" refX="8" refY="5" orient="auto"><path d="M0 0L10 5L0 10Z" fill="#27834a"/></marker><marker id="red" markerWidth="10" markerHeight="10" refX="8" refY="5" orient="auto"><path d="M0 0L10 5L0 10Z" fill="#bd4545"/></marker></defs><rect width="1080" height="390" rx="20" fill="#f7fbff"/><text x="39" y="42" text-anchor="start" font-family="Arial,sans-serif" font-size="17" font-weight="700" fill="#536b91">Viewport / class</text><text x="500" y="42" text-anchor="start" font-family="Arial,sans-serif" font-size="17" font-weight="700" fill="#536b91">12-column tracks · gutter giữa các columns</text><text x="38" y="99" text-anchor="start" font-family="Arial,sans-serif" font-size="20" font-weight="700" fill="#17365f">XS · col-12</text><text x="230" y="99" text-anchor="start" font-family="Arial,sans-serif" font-size="18" font-weight="600" fill="#24579c">12 columns</text><rect x="500" y="68" width="38" height="48" rx="2" fill="#48a0df" stroke="#287bc1" stroke-width="1"/><rect x="543" y="68" width="38" height="48" rx="2" fill="#48a0df" stroke="#287bc1" stroke-width="1"/><rect x="586" y="68" width="38" height="48" rx="2" fill="#48a0df" stroke="#287bc1" stroke-width="1"/><rect x="629" y="68" width="38" height="48" rx="2" fill="#48a0df" stroke="#287bc1" stroke-width="1"/><rect x="672" y="68" width="38" height="48" rx="2" fill="#48a0df" stroke="#287bc1" stroke-width="1"/><rect x="715" y="68" width="38" height="48" rx="2" fill="#48a0df" stroke="#287bc1" stroke-width="1"/><rect x="758" y="68" width="38" height="48" rx="2" fill="#48a0df" stroke="#287bc1" stroke-width="1"/><rect x="801" y="68" width="38" height="48" rx="2" fill="#48a0df" stroke="#287bc1" stroke-width="1"/><rect x="844" y="68" width="38" height="48" rx="2" fill="#48a0df" stroke="#287bc1" stroke-width="1"/><rect x="887" y="68" width="38" height="48" rx="2" fill="#48a0df" stroke="#287bc1" stroke-width="1"/><rect x="930" y="68" width="38" height="48" rx="2" fill="#48a0df" stroke="#287bc1" stroke-width="1"/><rect x="973" y="68" width="38" height="48" rx="2" fill="#48a0df" stroke="#287bc1" stroke-width="1"/><text x="1030" y="99" text-anchor="start" font-family="Arial,sans-serif" font-size="16" font-weight="700" fill="#174f91">12/12</text><text x="38" y="195" text-anchor="start" font-family="Arial,sans-serif" font-size="20" font-weight="700" fill="#17365f">MD · col-md-6</text><text x="230" y="195" text-anchor="start" font-family="Arial,sans-serif" font-size="18" font-weight="600" fill="#24579c">6 columns</text><rect x="500" y="164" width="38" height="48" rx="2" fill="#48a0df" stroke="#287bc1" stroke-width="1"/><rect x="543" y="164" width="38" height="48" rx="2" fill="#48a0df" stroke="#287bc1" stroke-width="1"/><rect x="586" y="164" width="38" height="48" rx="2" fill="#48a0df" stroke="#287bc1" stroke-width="1"/><rect x="629" y="164" width="38" height="48" rx="2" fill="#48a0df" stroke="#287bc1" stroke-width="1"/><rect x="672" y="164" width="38" height="48" rx="2" fill="#48a0df" stroke="#287bc1" stroke-width="1"/><rect x="715" y="164" width="38" height="48" rx="2" fill="#48a0df" stroke="#287bc1" stroke-width="1"/><rect x="758" y="164" width="38" height="48" rx="2" fill="#fff" stroke="#a9c8e6" stroke-width="1"/><rect x="801" y="164" width="38" height="48" rx="2" fill="#fff" stroke="#a9c8e6" stroke-width="1"/><rect x="844" y="164" width="38" height="48" rx="2" fill="#fff" stroke="#a9c8e6" stroke-width="1"/><rect x="887" y="164" width="38" height="48" rx="2" fill="#fff" stroke="#a9c8e6" stroke-width="1"/><rect x="930" y="164" width="38" height="48" rx="2" fill="#fff" stroke="#a9c8e6" stroke-width="1"/><rect x="973" y="164" width="38" height="48" rx="2" fill="#fff" stroke="#a9c8e6" stroke-width="1"/><text x="1030" y="195" text-anchor="start" font-family="Arial,sans-serif" font-size="16" font-weight="700" fill="#174f91">6/12</text><text x="38" y="291" text-anchor="start" font-family="Arial,sans-serif" font-size="20" font-weight="700" fill="#17365f">XL · col-xl-4</text><text x="230" y="291" text-anchor="start" font-family="Arial,sans-serif" font-size="18" font-weight="600" fill="#24579c">4 columns</text><rect x="500" y="260" width="38" height="48" rx="2" fill="#48a0df" stroke="#287bc1" stroke-width="1"/><rect x="543" y="260" width="38" height="48" rx="2" fill="#48a0df" stroke="#287bc1" stroke-width="1"/><rect x="586" y="260" width="38" height="48" rx="2" fill="#48a0df" stroke="#287bc1" stroke-width="1"/><rect x="629" y="260" width="38" height="48" rx="2" fill="#48a0df" stroke="#287bc1" stroke-width="1"/><rect x="672" y="260" width="38" height="48" rx="2" fill="#fff" stroke="#a9c8e6" stroke-width="1"/><rect x="715" y="260" width="38" height="48" rx="2" fill="#fff" stroke="#a9c8e6" stroke-width="1"/><rect x="758" y="260" width="38" height="48" rx="2" fill="#fff" stroke="#a9c8e6" stroke-width="1"/><rect x="801" y="260" width="38" height="48" rx="2" fill="#fff" stroke="#a9c8e6" stroke-width="1"/><rect x="844" y="260" width="38" height="48" rx="2" fill="#fff" stroke="#a9c8e6" stroke-width="1"/><rect x="887" y="260" width="38" height="48" rx="2" fill="#fff" stroke="#a9c8e6" stroke-width="1"/><rect x="930" y="260" width="38" height="48" rx="2" fill="#fff" stroke="#a9c8e6" stroke-width="1"/><rect x="973" y="260" width="38" height="48" rx="2" fill="#fff" stroke="#a9c8e6" stroke-width="1"/><text x="1030" y="291" text-anchor="start" font-family="Arial,sans-serif" font-size="16" font-weight="700" fill="#174f91">4/12</text><text x="500" y="350" text-anchor="start" font-family="Arial,sans-serif" font-size="16" font-weight="600" fill="#174f91">Cùng một card chiếm 12 → 6 → 4 tracks khi màn hình rộng dần</text></svg>