<svg xmlns="http://www.w3.org/2000/svg" viewBox="0 0 1100 570" role="img" aria-labelledby="title"><title id="title">reduce cộng từng input vào accumulator và tạo tổng cuối</title><defs><marker id="arrow" markerWidth="10" markerHeight="10" refX="8" refY="5" orient="auto"><path d="M0 0L10 5L0 10Z" fill="#287bc1"/></marker><marker id="orange" markerWidth="10" markerHeight="10" refX="8" refY="5" orient="auto"><path d="M0 0L10 5L0 10Z" fill="#dc8b28"/></marker><marker id="green" markerWidth="10" markerHeight="10" refX="8" refY="5" orient="auto"><path d="M0 0L10 5L0 10Z" fill="#27834a"/></marker><marker id="red" markerWidth="10" markerHeight="10" refX="8" refY="5" orient="auto"><path d="M0 0L10 5L0 10Z" fill="#bd4545"/></marker></defs><rect width="1100" height="570" rx="20" fill="#f7fbff"/><text x="185" y="39" text-anchor="middle" font-family="Arial,sans-serif" font-size="18" font-weight="700" fill="#174f91">Input values</text><text x="730" y="39" text-anchor="middle" font-family="Arial,sans-serif" font-size="18" font-weight="700" fill="#174f91">Accumulator</text><rect x="90" y="119" width="190" height="52" rx="12" fill="#eaf5ff" stroke="#3988cf" stroke-width="2"/><text x="185" y="152" text-anchor="middle" font-family="Arial,sans-serif" font-size="21" font-weight="700" fill="#174f91">price: 10</text><rect x="90" y="289" width="190" height="52" rx="12" fill="#eaf5ff" stroke="#3988cf" stroke-width="2"/><text x="185" y="322" text-anchor="middle" font-family="Arial,sans-serif" font-size="21" font-weight="700" fill="#174f91">price: 20</text><rect x="90" y="434" width="190" height="52" rx="12" fill="#eaf5ff" stroke="#3988cf" stroke-width="2"/><text x="185" y="467" text-anchor="middle" font-family="Arial,sans-serif" font-size="21" font-weight="700" fill="#174f91">price: 30</text><rect x="615" y="38" width="230" height="48" rx="12" fill="#fff" stroke="#a9c8e6" stroke-width="2"/><text x="730" y="69" text-anchor="middle" font-family="Arial,sans-serif" font-size="21" font-weight="700" fill="#17365f">sum = 0</text><path d="M730 86V120 M730 253V290 M730 413V435" fill="none" stroke="#70b889" stroke-width="4" marker-end="url(#green)"/><circle cx="730" cy="145" r="25" fill="#fff2df" stroke="#dc8b28" stroke-width="3"/><circle cx="730" cy="315" r="25" fill="#fff2df" stroke="#dc8b28" stroke-width="3"/><circle cx="730" cy="460" r="25" fill="#fff2df" stroke="#dc8b28" stroke-width="3"/><text x="730" y="153" text-anchor="middle" font-family="Arial,sans-serif" font-size="28" font-weight="700" fill="#9a5d17">+</text><text x="730" y="323" text-anchor="middle" font-family="Arial,sans-serif" font-size="28" font-weight="700" fill="#9a5d17">+</text><text x="730" y="468" text-anchor="middle" font-family="Arial,sans-serif" font-size="28" font-weight="700" fill="#9a5d17">+</text><line x1="280" y1="145" x2="702" y2="145" stroke="#287bc1" stroke-width="4" marker-end="url(#arrow)"/><line x1="280" y1="315" x2="702" y2="315" stroke="#287bc1" stroke-width="4" marker-end="url(#arrow)"/><line x1="280" y1="460" x2="702" y2="460" stroke="#287bc1" stroke-width="4" marker-end="url(#arrow)"/><path d="M730 170V205 M730 340V365 M730 485V510" fill="none" stroke="#27834a" stroke-width="4" marker-end="url(#green)"/><rect x="615" y="205" width="230" height="48" rx="12" fill="#e5f5e9" stroke="#70b889" stroke-width="2"/><text x="730" y="236" text-anchor="middle" font-family="Arial,sans-serif" font-size="21" font-weight="700" fill="#21683b">sum = 10</text><rect x="615" y="365" width="230" height="48" rx="12" fill="#e5f5e9" stroke="#70b889" stroke-width="2"/><text x="730" y="396" text-anchor="middle" font-family="Arial,sans-serif" font-size="21" font-weight="700" fill="#21683b">sum = 30</text><rect x="615" y="510" width="230" height="48" rx="12" fill="#27834a" stroke="#27834a" stroke-width="2"/><text x="730" y="541" text-anchor="middle" font-family="Arial,sans-serif" font-size="21" font-weight="700" fill="#fff">result = 60</text><rect x="65" y="494" width="430" height="65" rx="10" fill="#10243c" stroke="#10243c" stroke-width="1"/><text x="280" y="520" text-anchor="middle" font-family="Arial,sans-serif" font-size="14" font-weight="500" fill="#e2f1ff">prices.reduce((sum, price) =&gt; sum + price,</text><text x="280" y="543" text-anchor="middle" font-family="Arial,sans-serif" font-size="15" font-weight="500" fill="#e2f1ff">  0)</text></svg>